<?xml version="1.0" encoding="utf-8"?>
<!-- Generator: Adobe Illustrator 16.0.0, SVG Export Plug-In . SVG Version: 6.00 Build 0)  -->
<!DOCTYPE svg PUBLIC "-//W3C//DTD SVG 1.1//EN" "http://www.w3.org/Graphics/SVG/1.1/DTD/svg11.dtd">
<svg version="1.1" id="Layer_1" xmlns="http://www.w3.org/2000/svg" xmlns:xlink="http://www.w3.org/1999/xlink" x="0px" y="0px"
	 width="383.845px" height="150.662px" viewBox="7.748 9 383.845 150.662" enable-background="new 7.748 9 383.845 150.662"
	 xml:space="preserve">
<title>GBOX-simple</title>
<desc>Created with Sketch.</desc>
<g id="Page-1">
	<path id="Fill-33" fill="#84BF41" d="M84.187,100.864l6.332-24.426h16.623l-5.994,24.426H84.187L84.187,100.864z M21.089,100.864
		l-6.105-24.426h16.623l6.445,24.426H21.089L21.089,100.864z M11.48,64.34h41.047V52.807h17.185V64.34h41.049v6.444H69.712v34.375
		h44.78v6.446H91.99c4.523,15.717,12.213,31.889,22.502,48.057H96.287c-9.84-14.473-16.51-31.21-21.258-48.057h-5.317v48.057H52.527
		v-48.057h-5.428c-4.75,16.847-11.308,33.584-21.146,48.057H7.748c10.177-16.168,17.867-32.34,22.39-48.057H7.748v-6.446h44.779
		V70.784H11.48V64.34L11.48,64.34z"/>
	<path id="Fill-34" fill="#84BF41" d="M359.819,131.732v21.483h8.707v-17.188c0-2.373-1.923-4.295-4.298-4.295H359.819
		L359.819,131.732z M333.585,153.216h9.047v-21.483h-9.047V153.216z M316.286,81.979h43.533c-7.574-5.88-14.812-12.1-21.709-18.433
		C331.099,69.879,323.862,76.099,316.286,81.979L316.286,81.979z M317.868,100.864c-1.131,0-2.146,0.904-2.146,2.146v8.367
		c0,1.131,1.016,2.147,2.146,2.147h40.256c1.131,0,2.148-1.017,2.148-2.147v-8.367c0-1.243-1.018-2.146-2.148-2.146H317.868
		L317.868,100.864z M307.692,153.216h8.707v-21.483h-4.412c-2.373,0-4.295,1.922-4.295,4.295V153.216L307.692,153.216z
		 M298.532,101.88c0-4.071,3.506-7.463,7.576-7.463h63.775c4.07,0,7.463,3.392,7.463,7.463v10.517c0,4.184-3.393,7.576-7.463,7.576
		h-63.775c-4.07,0-7.576-3.393-7.576-7.576V101.88L298.532,101.88z M284.624,153.216h5.879v-20.353c0-4.186,3.394-7.577,7.576-7.577
		h80.059c4.07,0,7.576,3.392,7.576,7.577v20.353h5.879v6.446H284.624V153.216L284.624,153.216z M284.624,90.798
		c15.832-11.758,31.098-23.97,44.893-37.766h17.186c13.797,13.796,29.061,26.008,44.891,37.766h-19.789
		c-3.051-2.147-6.104-4.295-9.045-6.558v4.184h-49.527v-3.958c-2.939,2.15-5.878,4.297-8.818,6.332H284.624L284.624,90.798z"/>
	<path id="Fill-35" fill="#84BF41" d="M233.3,148.919c0,2.373-1.922,4.297-4.295,4.297h-58.912c-2.377,0-4.299-1.924-4.299-4.297
		V96.732h-17.057v55.354c0,4.184,3.274,7.576,7.456,7.576h86.833c4.183,0,7.464-3.393,7.464-7.576V96.732H233.3V148.919"/>
	<path id="Fill-36" fill="#84BF41" d="M230.596,41.322c-0.732,1.469-1.685,2.82-2.796,4.022c-4.2,4.547-10.407,6.889-16.481,7.383
		c-1.28,0.105-4.76,0.52-6.327,3.582c-0.076,0.147-0.152,0.296-0.22,0.456c-0.588,1.427-1.09,3.645-1.422,5.989
		c-0.246,1.715-0.399,3.492-0.429,5.086h7.974v12.35c-2.957-1.284-5.229-2.718-6.978-4.143c-4.369-3.559-5.453-7.055-5.676-7.995
		c-0.017-0.078-0.031-0.141-0.039-0.183c-0.002-0.01-0.004-0.02-0.006-0.029c-0.004-0.022-0.006-0.038-0.006-0.038l-0.003-0.002
		c-0.354-1.652-0.856-3.264-1.278-5.046c-0.172-0.723-0.332-1.472-0.459-2.267c-0.222-1.386-0.387-2.78-0.504-4.178
		c-0.131-1.58-0.199-3.166-0.197-4.752c0.002-1.861-0.129-3.722-0.535-5.539c-0.416-1.883-0.961-3.645-1.527-4.774
		c-1.418-2.83-4.604-2.97-5.735-2.979c-5.119-0.041-10.469-1.624-14.264-5.171c-1.009-0.945-1.89-2.019-2.593-3.204
		c-4.014-6.763-3.891-14.956-0.36-20.891c2.411,6.171,16.35,8.644,21.957,14.365c5.287,5.39,3.875,11.878,2.514,13.767
		c-1.809-2.961-4.883-4.95-8.068-6.33c-16.375-7.077-15.987-17.543-16.307-20.087c-0.279,4.907,1.252,9.357,5.83,14.294
		c0.994,1.071,4.442,3.652,7.811,5.478c3.728,2.024,7.388,3.67,9.802,7.315c0.741,1.117,1.293,2.351,1.84,3.572
		c0.137,0.308,0.272,0.614,0.41,0.92c1.006-6.05,3.979-18.767,5.346-20.559c1.778-2.325,3.287-0.583,3.394,0.85
		c0.228,3.066-2.841,3.759-5.214,11.774c-1.319,4.468-1.737,9.154-1.416,13.802c0.049,0.742,0.105,1.484,0.166,2.224
		c0.162,1.984,0.375,3.96,0.676,5.925c0.095,0.635,0.193,1.269,0.31,1.901c0.188,1.007,0.408,2.004,0.645,3.004
		c0.492-1.362,0.982-2.725,1.471-4.084c0.099-0.273,0.201-0.548,0.3-0.821c0.235-0.638,0.485-1.269,0.754-1.892
		c0.248-0.575,0.512-1.143,0.819-1.69c2.545-4.535,6.75-6.807,10.996-9.531c3.838-2.464,7.707-5.827,8.791-7.188
		c5.004-6.26,6.431-11.667,5.672-17.47c-0.155,3.047,1.216,15.433-17.601,25.261c-3.459,1.806-6.735,4.27-8.678,7.631
		c-0.113,0.195-0.24,0.382-0.345,0.584c-0.317-0.379-0.647-0.939-0.946-1.631c-1.375-3.182-2.039-9.292,2.731-14.928
		c6.153-7.278,22.483-11.426,24.806-18.958C233.909,23.232,234.77,32.947,230.596,41.322"/>
	<path id="Fill-37" fill="#84BF41" d="M256.077,92.539h-45.054c3.711,19.102,10.062,35.627,17.819,52.621
		c0.279,0.611,0.556,1.224,0.841,1.837l-0.017-0.009l0.004,0.009l-12.805-7.75l-4.371,7.75l-0.004-0.011l-0.009,0.011
		c-0.215-0.445-0.42-0.894-0.635-1.34c-5.111-10.447-9.104-21.296-12.356-32.357c-3.279,11.648-7.463,22.841-12.777,33.697
		l-4.383-7.75l-12.805,7.75c8.03-17.642,14.588-34.669,18.432-54.458H143.15V63.886c0-4.183,3.276-7.576,7.458-7.576h45.338
		c0.117,1.398,0.282,2.792,0.504,4.178c0.127,0.795,0.287,1.544,0.459,2.267h-32.405c-2.375,0-4.295,1.924-4.295,4.298v18.995
		h27.493V67.841h9.381c0.373,1.619,0.895,3.06,1.523,4.337c1.329,2.693,3.123,4.672,4.964,6.119
		c2.871,2.256,5.845,3.224,7.324,3.594v4.157h27.996V67.053c0-2.374-1.923-4.298-4.298-4.298H203.35
		c0.332-2.344,0.834-4.562,1.422-5.989c0.067-0.16,0.144-0.309,0.22-0.456h43.623c4.184,0,7.463,3.393,7.463,7.576V92.539"/>
</g>
</svg>
