<?xml version="1.0" encoding="UTF-8"?>
<svg width="5912px" height="1873px" viewBox="0 0 5912 1873" version="1.1" xmlns="http://www.w3.org/2000/svg" xmlns:xlink="http://www.w3.org/1999/xlink">
    <!-- Generator: Sketch 43.1 (39012) - http://www.bohemiancoding.com/sketch -->
    <title>Slice 2</title>
    <desc>Created with Sketch.</desc>
    <defs></defs>
    <g id="Page-1" stroke="none" stroke-width="1" fill="none" fill-rule="evenodd">
        <g id="affinet_logo" transform="translate(154.000000, 141.000000)" fill-rule="nonzero" fill="#3498DB">
            <path d="M903,1409.19 C903,1432.92 883.78,1452.16 860.05,1452.16 L270.93,1452.16 C247.16,1452.16 227.94,1432.92 227.94,1409.19 L227.94,887.32 L57.37,887.32 L57.37,1440.86 C57.37,1482.7 90.11,1516.62 131.93,1516.62 L1000.26,1516.62 C1042.09,1516.62 1074.9,1482.69 1074.9,1440.86 L1074.9,887.32 L903,887.32 L903,1409.19" id="Fill-35"></path>
            <path d="M875.96,333.22 C868.64,347.91 859.11,361.42 848,373.44 C806,418.91 743.93,442.33 683.19,447.27 C670.39,448.32 635.59,452.47 619.92,483.09 C619.16,484.56 618.4,486.05 617.72,487.65 C611.84,501.92 606.82,524.1 603.5,547.54 C601.04,564.69 599.51,582.46 599.21,598.4 L678.95,598.4 L678.95,721.9 C649.38,709.06 626.66,694.72 609.17,680.47 C565.48,644.88 554.64,609.92 552.41,600.52 C552.24,599.74 552.1,599.11 552.02,598.69 C552,598.59 551.98,598.49 551.96,598.4 C551.92,598.18 551.9,598.02 551.9,598.02 L551.87,598 C548.33,581.48 543.31,565.36 539.09,547.54 C537.37,540.31 535.77,532.82 534.5,524.87 C532.28,511.01 530.63,497.07 529.46,483.09 C528.15,467.29 527.47,451.43 527.49,435.57 C527.51,416.96 526.2,398.35 522.14,380.18 C517.98,361.35 512.53,343.73 506.87,332.44 C492.69,304.14 460.83,302.74 449.52,302.65 C398.33,302.24 344.83,286.41 306.88,250.94 C296.79,241.49 287.98,230.75 280.95,218.9 C240.81,151.27 242.04,69.34 277.35,9.99 C301.46,71.7 440.85,96.43 496.92,153.64 C549.79,207.54 535.67,272.42 522.06,291.31 C503.97,261.7 473.23,241.81 441.38,228.01 C277.63,157.24 281.51,52.58 278.31,27.14 C275.52,76.21 290.83,120.71 336.61,170.08 C346.55,180.79 381.03,206.6 414.72,224.86 C452,245.1 488.6,261.56 512.74,298.01 C520.15,309.18 525.67,321.52 531.14,333.73 C532.51,336.81 533.86,339.87 535.24,342.93 C545.3,282.43 575.03,155.26 588.7,137.34 C606.48,114.09 621.57,131.51 622.64,145.84 C624.92,176.5 594.23,183.43 570.5,263.58 C557.31,308.26 553.13,355.12 556.34,401.6 C556.83,409.02 557.39,416.44 558,423.84 C559.62,443.68 561.75,463.44 564.76,483.09 C565.71,489.44 566.69,495.78 567.86,502.1 C569.74,512.17 571.94,522.14 574.31,532.14 C579.23,518.52 584.13,504.89 589.02,491.3 C590.01,488.57 591.03,485.82 592.02,483.09 C594.37,476.71 596.87,470.4 599.56,464.17 C602.04,458.42 604.68,452.74 607.75,447.27 C633.2,401.92 675.25,379.2 717.71,351.96 C756.09,327.32 794.78,293.69 805.62,280.08 C855.66,217.48 869.93,163.41 862.34,105.38 C860.79,135.85 874.5,259.71 686.33,357.99 C651.74,376.05 618.98,400.69 599.55,434.3 C598.42,436.25 597.15,438.12 596.1,440.14 C592.93,436.35 589.63,430.75 586.64,423.83 C572.89,392.01 566.25,330.91 613.95,274.55 C675.48,201.77 838.78,160.29 862.01,84.97 C909.09,152.32 917.7,249.47 875.96,333.22" id="Fill-36"></path>
            <path d="M1130.77,845.39 L680.23,845.39 C717.34,1036.41 780.85,1201.66 858.42,1371.6 C861.21,1377.71 863.98,1383.84 866.83,1389.97 L866.66,1389.88 L866.7,1389.97 L738.65,1312.47 L694.94,1389.97 L694.9,1389.86 L694.81,1389.97 C692.66,1385.52 690.61,1381.03 688.46,1376.57 C637.35,1272.1 597.42,1163.61 564.9,1053 C532.11,1169.48 490.27,1281.41 437.13,1389.97 L393.3,1312.47 L265.25,1389.97 C345.55,1213.55 411.13,1043.28 449.57,845.39 L1.5,845.39 L1.5,558.86 C1.5,517.03 34.26,483.1 76.08,483.1 L529.46,483.1 C530.63,497.08 532.28,511.02 534.5,524.88 C535.77,532.83 537.37,540.32 539.09,547.55 L215.04,547.55 C191.29,547.55 172.09,566.79 172.09,590.53 L172.09,780.48 L447.02,780.48 L447.02,598.41 L540.83,598.41 C544.56,614.6 549.78,629.01 556.06,641.78 C569.35,668.71 587.29,688.5 605.7,702.97 C634.41,725.53 664.15,735.21 678.94,738.91 L678.94,780.48 L958.9,780.48 L958.9,590.53 C958.9,566.79 939.67,547.55 915.92,547.55 L603.5,547.55 C606.82,524.11 611.84,501.93 617.72,487.66 C618.39,486.06 619.16,484.57 619.92,483.1 L1056.15,483.1 C1097.99,483.1 1130.78,517.03 1130.78,558.86 L1130.78,845.39" id="Fill-37"></path>
        </g>
        <g id="6d77" transform="translate(1745.000000, 719.000000)" fill-rule="nonzero" fill="#3498DB">
            <g id="Group" transform="translate(470.000000, 468.500000) scale(-1, 1) rotate(-180.000000) translate(-470.000000, -468.500000) ">
                <path d="M853,864 C886.333333,864 909.166667,855 921.5,837 C933.833333,819 940,793.166667 940,759.5 C940,725.833333 936.5,701.833333 929.5,687.5 C922.5,673.166667 914,666 904,666 C898,666 892.666667,668 888,672 C862.666667,696.666667 826.666667,709 780,709 L501,709 C483.666667,709 473,704.333333 469,695 C451.666667,655 435.166667,626.333333 419.5,609 C403.833333,591.666667 382.333333,583 355,583 C336.333333,583 320.5,590.333333 307.5,605 C294.5,619.666667 288,629.333333 288,634 C288,638.666667 290,643 294,647 C331.333333,688.333333 350,725.666667 350,759 C350,792.333333 342.666667,818.666667 328,838 C322.666667,844.666667 320,850.833333 320,856.5 C320,862.166667 328,877 344,901 C360,925 383.666667,937 415,937 C446.333333,937 473.333333,932.666667 496,924 C518.666667,915.333333 532,900.666667 536,880 C537.333333,873.333333 539.166667,869 541.5,867 C543.833333,865 548,864 554,864 L853,864 Z M315,766 C315,740 305.666667,715.166667 287,691.5 C268.333333,667.833333 251.666667,656 237,656 C229.666667,656 219.833333,661 207.5,671 C195.166667,681 178,691 156,701 C134,711 117,716.666667 105,718 C90.3333333,718 72.6666667,727.5 52,746.5 C31.3333333,765.5 21,784.666667 21,804 C21,823.333333 30.6666667,847.166667 50,875.5 C69.3333333,903.833333 90,918 112,918 C134,918 161,909.166667 193,891.5 L268.5,849 C268.5,849 280.833333,836.333333 305.5,811 C330.166667,785.666667 333.333333,770.666667 315,766 Z M101,682 C113,682 130.166667,676.166667 152.5,664.5 C174.833333,652.833333 200.833333,635.666667 230.5,613 C260.166667,590.333333 279.666667,572 289,558 C298.333333,544 303,530.333333 303,517 C303,495 291.333333,479 268,469 C244.666667,459 230,447.333333 224,434 C220,425.333333 212.833333,421 202.5,421 C192.166667,421 184.333333,420.666667 179,420 L164,418 C159.333333,418 148.333333,424.5 131,437.5 C113.666667,450.5 87.5,467.333333 52.5,488 C17.5,508.666667 0,533.333333 0,562 C0,584 10.8333333,609.5 32.5,638.5 C54.1666667,667.5 77,682 101,682 Z M777,675 C803.666667,675 826,670.833333 844,662.5 C862,654.166667 874.5,642.333333 881.5,627 C888.5,611.666667 892,591.333333 892,566 C892,540.666667 891.333333,520 890,504 L888,466 C888,456.666667 891,450.333333 897,447 C912.333333,439.666667 922.833333,429.666667 928.5,417 C934.166667,404.333333 937,383.833333 937,355.5 C937,327.166667 933.666667,305.166667 927,289.5 C920.333333,273.833333 907.666667,262 889,254 C882.333333,251.333333 879,247 879,241 L881,165 C881,111.666667 877.5,75.1666667 870.5,55.5 C863.5,35.8333333 849.5,21.6666667 828.5,13 C807.5,4.33333333 774.333333,0 729,0 L434,0 C391.333333,0 361.166667,2.83333333 343.5,8.5 C325.833333,14.1666667 313.666667,27 307,47 C300.333333,67 297,98 297,140 C297,157.333333 300.666667,174 308,190 C322,220.666667 331,242.5 335,255.5 C339,268.5 341,282.666667 341,298 C341,330.666667 323.666667,359.333333 289,384 C270.333333,396.666667 261,408.5 261,419.5 C261,430.5 276,438 306,442 C316,443.333333 322.333333,445.666667 325,449 C327.666667,452.333333 329,458.666667 329,468 C329.666667,504 332.166667,526.666667 336.5,536 C340.833333,545.333333 349.666667,550 363,550 C387.666667,550 409.166667,557.333333 427.5,572 C445.833333,586.666667 465.666667,613.333333 487,652 C492.333333,660.666667 497.5,666.666667 502.5,670 C507.5,673.333333 520.333333,675 541,675 L777,675 Z M669,345 C697.666667,345 720.333333,356.833333 737,380.5 C753.666667,404.166667 762,428.666667 762,454 C762,473.333333 754.666667,490 740,504 C725.333333,518 696.666667,533.333333 654,550 C611.333333,566.666667 581.333333,575 564,575 C536,575 514,563.666667 498,541 C482,518.333333 474,496.333333 474,475 C474,436.333333 502,405 558,381 C614,357 651,345 669,345 Z M668,379 C656.666667,379 633,386.333333 597,401 C561,415.666667 537.5,428.5 526.5,439.5 C515.5,450.5 510,463 510,477 C510,491 515,505.166667 525,519.5 C535,533.833333 548.666667,541 566,541 C576.666667,541 601.5,533.333333 640.5,518 C679.5,502.666667 703.5,490.666667 712.5,482 C721.5,473.333333 726,461.166667 726,445.5 C726,429.833333 720.833333,414.833333 710.5,400.5 C700.166667,386.166667 686,379 668,379 Z M640,85 C668,85 690.833333,95.6666667 708.5,117 C726.166667,138.333333 735,163.333333 735,192 C735,208.666667 730,225.166667 720,241.5 C710,257.833333 679.166667,277 627.5,299 C575.833333,321 539.666667,332 519,332 C491,332 468.666667,318.833333 452,292.5 C435.333333,266.166667 427,242 427,220 C427,198 435,179.333333 451,164 C467,148.666667 498.166667,131.666667 544.5,113 C590.833333,94.3333333 622.666667,85 640,85 Z M639,124 C626.333333,124 600.333333,131.666667 561,147 C521.666667,162.333333 495.833333,175.166667 483.5,185.5 C471.166667,195.833333 465,208 465,222 C465,236 470.333333,251.833333 481,269.5 C491.666667,287.166667 506.666667,296 526,296 C540,296 567.666667,287 609,269 C650.333333,251 675.5,237.666667 684.5,229 C693.5,220.333333 698,208.166667 698,192.5 C698,176.833333 692.833333,161.5 682.5,146.5 C672.166667,131.5 657.666667,124 639,124 Z M306,291 C306,270.333333 296,241 276,203 L221,92 C203,57.3333333 185.333333,33.6666667 168,21 C150.666667,8.33333333 130.666667,2 108,2 C85.3333333,2 61.6666667,12.1666667 37,32.5 C12.3333333,52.8333333 0,76 0,102 C0,121.333333 6,139.333333 18,156 C63.3333333,220 102,285.333333 134,352 C146,375.333333 165.666667,387 193,387 C216.333333,387 241,377.333333 267,358 C293,338.666667 306,316.333333 306,291 Z" id="Shape"></path>
            </g>
        </g>
        <g id="5e02" transform="translate(2794.000000, 719.000000)" fill-rule="nonzero" fill="#3498DB">
            <g id="Group" transform="translate(462.000000, 471.000000) scale(-1, 1) rotate(-180.000000) translate(-462.000000, -471.000000) ">
                <path d="M811,851 C859.666667,851 890.666667,844.833333 904,832.5 C917.333333,820.166667 924,793 924,751 C924,709 916.5,682.166667 901.5,670.5 C886.5,658.833333 856.333333,653 811,653 L644,653 C630.666667,653 621.166667,654.166667 615.5,656.5 C609.833333,658.833333 606,663.666667 604,671 C588.666667,720.333333 539.666667,745 457,745 C416.333333,745 385.166667,740 363.5,730 C341.833333,720 326.666667,701.333333 318,674 C315.333333,665.333333 311.5,659.666667 306.5,657 C301.5,654.333333 294.333333,653 285,653 L113,653 C69.6666667,653 40,658.5 24,669.5 C8,680.5 -5.68434189e-14,707.166667 -5.68434189e-14,749.5 C-5.68434189e-14,791.833333 6.33333333,819.333333 19,832 C31.6666667,844.666667 63,851 113,851 L327,851 C333,851 337.333333,851.833333 340,853.5 C342.666667,855.166667 343.666667,858 343,862 L343,873 C343,894.333333 354,911.166667 376,923.5 C398,935.833333 430,942 472,942 C543.333333,942 580.666667,915.333333 584,862 C584.666667,857.333333 586,854.333333 588,853 C590,851.666667 594,851 600,851 L811,851 Z M870,234 C870,196 860.833333,166.833333 842.5,146.5 C824.166667,126.166667 798.333333,116 765,116 L632,116 C573.333333,116 544,151 544,221 C544,255 551.166667,279.166667 565.5,293.5 C579.833333,307.833333 603,315 635,315 C649.666667,315 659,317 663,321 C667,325 669,332.666667 669,344 L669,391 C669,400.333333 667.666667,406.833333 665,410.5 C662.333333,414.166667 657,416 649,416 L574,416 C569.333333,416 566.166667,415.166667 564.5,413.5 C562.833333,411.833333 562,408.333333 562,403 L562,364 C562,353.333333 560.666667,345.5 558,340.5 C555.333333,335.5 550.333333,329.666667 543,323 C520.333333,304.333333 509,270.333333 509,221 C509,171.666667 521,135 545,111 C555,101 561,93.3333333 563,88 C565,82.6666667 566,75.3333333 566,66 C566,41.3333333 558.166667,24.1666667 542.5,14.5 C526.833333,4.83333333 501.833333,0 467.5,0 C433.166667,0 408.333333,2.83333333 393,8.5 C377.666667,14.1666667 367.5,23.6666667 362.5,37 C357.5,50.3333333 355,70.3333333 355,97 L355,404 C355,408.666667 354.333333,411.833333 353,413.5 C351.666667,415.166667 348.666667,416 344,416 L279,416 C269.666667,416 263.333333,415 260,413 C256.666667,411 255,404.666667 255,394 L255,213 C255,175.666667 247.333333,149.666667 232,135 C216.666667,120.333333 190.333333,113 153,113 C115.666667,113 89.3333333,119.666667 74,133 C58.6666667,146.333333 51,173 51,213 L51,471 C52.3333333,556.333333 98.6666667,599 190,599 L333,599 C339.666667,599 343.833333,600.833333 345.5,604.5 C347.166667,608.166667 348,618 348,634 C348,661.333333 356.5,680.833333 373.5,692.5 C390.5,704.166667 418.833333,710 458.5,710 C498.166667,710 527.166667,704 545.5,692 C563.833333,680 573,660.333333 573,633 C573,617.666667 573.833333,608.166667 575.5,604.5 C577.166667,600.833333 582,599 590,599 L726,599 C779.333333,599 816.666667,589 838,569 C859.333333,549 870,515.333333 870,468 L870,234 Z" id="Shape"></path>
            </g>
        </g>
        <g id="76df" transform="translate(4819.000000, 719.000000)" fill-rule="nonzero" fill="#3498DB">
            <g id="Group" transform="translate(468.000000, 459.500000) scale(-1, 1) rotate(-180.000000) translate(-468.000000, -459.500000) ">
                <path d="M903,474 C903,438.666667 895.333333,412.833333 880,396.5 C864.666667,380.166667 838.666667,372 802,372 L729,372 C697,372 674.833333,376.833333 662.5,386.5 C650.166667,396.166667 644,411.833333 644,433.5 C644,455.166667 649.666667,471.666667 661,483 C672.333333,494.333333 688,500 708,500 C716,500 721.5,500.833333 724.5,502.5 C727.5,504.166667 729,508.5 729,515.5 C729,522.5 727.5,527.166667 724.5,529.5 C721.5,531.833333 716,533 708,533 C680,533 657,527.166667 639,515.5 C621,503.833333 609.666667,487.333333 605,466 C597.666667,431.333333 587.166667,406 573.5,390 C559.833333,374 541.833333,366 519.5,366 C497.166667,366 471.833333,371.833333 443.5,383.5 C415.166667,395.166667 401,413.333333 401,438 C401,450 404.833333,465.333333 412.5,484 C420.166667,502.666667 427.166667,531.5 433.5,570.5 C439.833333,609.5 443,646 443,680 L443,812 C443,883.333333 478.666667,919 550,919 L799,919 C841.666667,919 869.666667,912 883,898 C896.333333,884 903,861.666667 903,831 L903,474 Z M716,738 C726,738 731,743.5 731,754.5 C731,765.5 730,772.5 728,775.5 C726,778.5 722,780 716,780 L627,780 C617,780 612,773 612,759 C612,745 617,738 627,738 L716,738 Z M716,611 C726,611 731,617.5 731,630.5 C731,643.5 726,650 716,650 L627,650 C621,650 617,648.666667 615,646 C613,643.333333 612,638.166667 612,630.5 C612,622.833333 613.166667,617.666667 615.5,615 C617.833333,612.333333 621.666667,611 627,611 L716,611 Z M410,680 C410,641.333333 406,602.5 398,563.5 C390,524.5 381.333333,493.5 372,470.5 C362.666667,447.5 355.333333,434.333333 350,431 C344.666667,427.666667 334.333333,426 319,426 L147,426 C103.666667,426 75.6666667,434.5 63,451.5 C50.3333333,468.5 44,497.666667 44,539 L44,806 C44,838.666667 51.6666667,862.5 67,877.5 C82.3333333,892.5 107,900 141,900 L342,900 C366.666667,900 384.166667,896 394.5,888 C404.833333,880 410,865.666667 410,845 L410,680 Z M274,707 C284.666667,707 290,713 290,725 C290,737 288.833333,744.5 286.5,747.5 C284.166667,750.5 280,752 274,752 L210,752 C200.666667,752 196,744.5 196,729.5 C196,714.5 200.666667,707 210,707 L274,707 Z M274,567 C284.666667,567 290,572.833333 290,584.5 C290,596.166667 288.833333,603.5 286.5,606.5 C284.166667,609.5 280,611 274,611 L210,611 C200.666667,611 196,603.666667 196,589 C196,574.333333 200.666667,567 210,567 L274,567 Z M860,193 C860,180.333333 864,174 872,174 C894,174 910.166667,167.333333 920.5,154 C930.833333,140.666667 936,118.333333 936,87 C936,29 914.666667,0 872,0 L68,0 C22.6666667,0 -5.68434189e-14,29 -5.68434189e-14,87 C-5.68434189e-14,145 22.6666667,174 68,174 C79.3333333,174 85,179 85,189 L85,320 C85,348.666667 90.5,368.5 101.5,379.5 C112.5,390.5 133,396 163,396 L330,396 C350.666667,396 364,395.166667 370,393.5 C376,391.833333 382.166667,386.666667 388.5,378 C394.833333,369.333333 411.166667,359.666667 437.5,349 C463.833333,338.333333 491.666667,333 521,333 C550.333333,333 573,342.666667 589,362 C598.333333,373.333333 606.166667,379 612.5,379 C618.833333,379 625.833333,374 633.5,364 C641.166667,354 652.166667,347.166667 666.5,343.5 C680.833333,339.833333 701.666667,338 729,338 L802,338 C822,338 836.666667,334.833333 846,328.5 C855.333333,322.166667 860,311.666667 860,297 L860,193 Z M682,192 L682,253 C682,259 680.333333,263 677,265 C673.666667,267 668,268 660,268 C652,268 646.333333,267 643,265 C639.666667,263 638,259 638,253 L638,192 C638,186 639.666667,181.833333 643,179.5 C646.333333,177.166667 652,176 660,176 C668,176 673.666667,177.166667 677,179.5 C680.333333,181.833333 682,186 682,192 Z M490,192 L490,253 C490,259 488.5,263 485.5,265 C482.5,267 476.333333,268 467,268 C457.666667,268 451.5,267 448.5,265 C445.5,263 444,259 444,253 L444,192 C444,186 445.5,181.833333 448.5,179.5 C451.5,177.166667 459.166667,176 471.5,176 C483.833333,176 490,181.333333 490,192 Z M301,192 L301,253 C301,259 299.333333,263 296,265 C292.666667,267 284.666667,268 272,268 C259.333333,268 253,263 253,253 L253,192 C253,185.333333 254.833333,181 258.5,179 C262.166667,177 270.166667,176 282.5,176 C294.833333,176 301,181.333333 301,192 Z" id="Shape"></path>
            </g>
        </g>
        <g id="5546" transform="translate(3810.000000, 723.000000)" fill-rule="nonzero" fill="#3498DB">
            <g id="Group" transform="translate(458.500000, 469.000000) scale(-1, 1) rotate(-180.000000) translate(-458.500000, -469.000000) ">
                <path d="M861,852 C898.333333,852 917,823.833333 917,767.5 C917,711.166667 898.333333,683 861,683 L744,683 C737.333333,683 732.833333,679.166667 730.5,671.5 C728.166667,663.833333 727,658.333333 727,655 C727,651.666667 731,650 739,650 L768,650 C803.333333,650 830.666667,639.5 850,618.5 C869.333333,597.5 879,568.333333 879,531 L879,136 C879,100.666667 869.666667,71.5 851,48.5 C832.333333,25.5 808.666667,14 780,14 L670,14 C620.666667,14 596,44.6666667 596,106 C596,136 602.666667,157.333333 616,170 C629.333333,182.666667 650.666667,189 680,189 C690.666667,189 697.166667,190 699.5,192 C701.833333,194 703,198.333333 703,205 L703,317 C703,323 705.333333,327.666667 710,331 C725.333333,340.333333 739.5,354.833333 752.5,374.5 C765.5,394.166667 772,411.333333 772,426 C772,440.666667 765.666667,455.333333 753,470 C740.333333,484.666667 718.833333,501.5 688.5,520.5 C658.166667,539.5 631.666667,555.333333 609,568 C586.333333,580.666667 566.333333,587 549,587 C519.666667,587 495.666667,569.666667 477,535 C471,525 466.666667,518.666667 464,516 C461.333333,513.333333 456.666667,511.5 450,510.5 C443.333333,509.5 439.166667,507.833333 437.5,505.5 C435.833333,503.166667 435,494.5 435,479.5 C435,464.5 432.166667,451.666667 426.5,441 C420.833333,430.333333 406.666667,425 384,425 L330,425 C302.666667,425 278.166667,416 256.5,398 C234.833333,380 222.666667,358 220,332 C217.333333,306 212.666667,293 206,293 C199.333333,293 190.333333,299.666667 179,313 C167.666667,326.333333 162,344 162,366 C162,396.666667 176.166667,419.833333 204.5,435.5 C232.833333,451.166667 251,463 259,471 C267,479 271,488.333333 271,499 C271,503.666667 265.5,506 254.5,506 C243.5,506 234.666667,502.166667 228,494.5 C221.333333,486.833333 206,476 182,462 C146.666667,442.666667 129,410.833333 129,366.5 C129,322.166667 147,287.333333 183,262 C197.666667,251.333333 207.166667,243 211.5,237 C215.833333,231 218,220.333333 218,205 L218,175 C218,160.333333 222,142.666667 230,122 C234,110 236,98 236,86 L236,64 C236,41.3333333 228,25 212,15 C196,5 170.833333,0 136.5,0 C102.166667,0 77.3333333,4.83333333 62,14.5 C46.6666667,24.1666667 39,40.6666667 39,64 L39,538 C39,568 49.3333333,593.833333 70,615.5 C90.6666667,637.166667 115.666667,648 145,648 L177,648 C185.666667,648 190,651.666667 190,659 C190,666.333333 188.833333,672.166667 186.5,676.5 C184.166667,680.833333 179.666667,683 173,683 L56,683 C18.6666667,683 -5.68434189e-14,711.166667 -5.68434189e-14,767.5 C-5.68434189e-14,823.833333 18.6666667,852 56,852 L328,852 C334.666667,852 338,855.333333 338,862 L337,874 C337,916.666667 382,938 472,938 C503.333333,938 526.833333,932.833333 542.5,922.5 C558.166667,912.166667 567.666667,892.666667 571,864 C571.666667,856 575,852 581,852 L861,852 Z M498,636 C506.666667,636 512.833333,637 516.5,639 C520.166667,641 523.5,645.833333 526.5,653.5 C529.5,661.166667 531,668.166667 531,674.5 C531,680.833333 522.333333,684 505,684 L411,684 C401.666667,684 395.666667,683 393,681 C390.333333,679 389,676 389,672 C389,668 389.833333,662.166667 391.5,654.5 C393.166667,646.833333 395.5,641.833333 398.5,639.5 C401.5,637.166667 408.333333,636 419,636 L498,636 Z M593,425 L553,425 C541.666667,425 528.666667,430.5 514,441.5 C499.333333,452.5 492,464 492,476 C492,488 497.666667,503.666667 509,523 C520.333333,542.333333 534.666667,552 552,552 C561.333333,552 572.5,548.666667 585.5,542 C598.5,535.333333 617,524.833333 641,510.5 C665,496.166667 683.5,484.333333 696.5,475 C709.5,465.666667 719.166667,456.833333 725.5,448.5 C731.833333,440.166667 735,431.5 735,422.5 C735,413.5 730,401.666667 720,387 C710,372.333333 703.166667,365 699.5,365 C695.833333,365 693.333333,366.666667 692,370 C684.666667,387.333333 672.333333,400.833333 655,410.5 C637.666667,420.166667 617,425 593,425 Z M669,255 C669,242.333333 667,233.833333 663,229.5 C659,225.166667 649,221.333333 633,218 C589,209.333333 565.333333,177 562,121 C561.333333,109.666667 558.166667,102 552.5,98 C546.833333,94 536.666667,92 522,92 L333,92 C309,92 289.5,100.333333 274.5,117 C259.5,133.666667 252,156.333333 252,185 L252,318 C252,338 260,355.166667 276,369.5 C292,383.833333 311,391 333,391 L593,391 C617,391 635.666667,384.5 649,371.5 C662.333333,358.5 669,340.333333 669,317 L669,255 Z M517,239 L517,263 C517,270.333333 510,274 496,274 L429,274 C418.333333,274 411.5,273.5 408.5,272.5 C405.5,271.5 404,268.333333 404,263 L404,240 C404,234.666667 405.833333,231.166667 409.5,229.5 C413.166667,227.833333 419.666667,227 429,227 L496,227 C504,227 509.5,227.666667 512.5,229 C515.5,230.333333 517,233.666667 517,239 Z" id="Shape"></path>
            </g>
        </g>
    </g>
</svg>