<?xml version="1.0" encoding="UTF-8"?>
<svg width="24px" height="24px" viewBox="0 0 24 24" version="1.1" xmlns="http://www.w3.org/2000/svg" xmlns:xlink="http://www.w3.org/1999/xlink">
    <!-- Generator: Sketch 44 (41411) - http://www.bohemiancoding.com/sketch -->
    <title>icon / exit</title>
    <desc>Created with Sketch.</desc>
    <defs></defs>
    <g id="Symbols" stroke="none" stroke-width="1" fill="none" fill-rule="evenodd">
        <g id="icon-/-exit" fill="#333333">
            <g id="icon-/-back">
                <path d="M12,10.5908679 L17.3062063,5.2906568 C17.6941245,4.9031144 18.3211431,4.9031144 18.7090613,5.2906568 C19.0969796,5.67819919 19.0969796,6.30560159 18.7090613,6.69314398 L13.3952213,11.9998761 L18.7090613,17.3085905 C19.0969796,17.6951418 19.0969796,18.3225442 18.7090613,18.7100866 C18.3211431,19.0966378 17.6941245,19.0966378 17.3062063,18.7100866 L12,13.4090012 L6.69379375,18.7100866 C6.30587554,19.0966378 5.67885686,19.0966378 5.29093865,18.7100866 C4.90302045,18.3225442 4.90302045,17.6951418 5.29093865,17.3085905 L10.6047787,11.9998761 L5.29093865,6.69314398 C4.90302045,6.30560159 4.90302045,5.67819919 5.29093865,5.2906568 C5.67885686,4.9031144 6.30587554,4.9031144 6.69379375,5.2906568 L12,10.5908679 Z" id="Combined-Shape"></path>
            </g>
        </g>
    </g>
</svg>